Dark.Moon.Rising.2009.DVDRiP.MP4.FEEL-FREE

Genre:Crime | Horror | Romance | Thriller
Language: English
IMDb:http://www.imdb.com/title/tt1231593/
Encoder: Tony2
...........................................
General
Complete name : Dark.Moon.Rising.2009.DVDRiP.MP4.FEEL-FREE
Format : MPEG-4
Format profile : Base Media
Codec ID : isom
File size : 1.04 GiB
Overall bit rate : 909 Kbps
............................................
Video
ID : 1
Format : AVC
Format/Info : Advanced Video Codec
Format profile : Main@L1.3
Format settings, CABAC : Yes
Format settings, ReFrames : 1 frame
Codec ID : avc1
Codec ID/Info : Advanced Video Coding
Duration : 2h 44mn
Bit rate mode : Variable
Bit rate : 776 Kbps
Width : 704 pixels
Height : 304 pixels
Display aspect ratio : 2.35:1
Frame rate mode : Constant
Frame rate : 29.970 fps
Resolution : 24 bits
Colorimetry : 4:2:0
Scan type : Progressive
Bits/(Pixel*Frame) : 0.121
Stream size : 913 MiB (85%)
.............................................
Audio
ID : 2
Format : AAC
Format/Info : Advanced Audio Codec
Format version : Version 4
Format profile : LC
Format settings, SBR : No
Codec ID : 40
Duration : 2h 44mn
Bit rate mode : Variable
Bit rate : 128 Kbps
Channel(s) : 2 channels
Channel positions : L R
Sampling rate : 44.1 KHz
Resolution : 16 bits
Stream size : 150 MiB (14%)
...............................................
Plot:
Small-town girl meets mysterious drifter boy, they fall in love. Only in this case, the boy brings with him a family curse and unimaginable horror that rains hell upon the small town
...................................................